<?xml version="1.0" encoding="utf-8"?>
<!-- Generator: Adobe Illustrator 17.1.0, SVG Export Plug-In . SVG Version: 6.00 Build 0)  -->
<!DOCTYPE svg PUBLIC "-//W3C//DTD SVG 1.1//EN" "http://www.w3.org/Graphics/SVG/1.1/DTD/svg11.dtd">
<svg version="1.1"
	 id="svg3476" xmlns:inkscape="http://www.inkscape.org/namespaces/inkscape" xmlns:cc="http://creativecommons.org/ns#" xmlns:rdf="http://www.w3.org/1999/02/22-rdf-syntax-ns#" xmlns:svg="http://www.w3.org/2000/svg" xmlns:sodipodi="http://sodipodi.sourceforge.net/DTD/sodipodi-0.dtd" xmlns:dc="http://purl.org/dc/elements/1.1/" inkscape:version="0.91 r13725" sodipodi:docname="CSS3.svg"
	 xmlns="http://www.w3.org/2000/svg" xmlns:xlink="http://www.w3.org/1999/xlink" x="0px" y="0px" viewBox="0 0 290.2 409.6"
	 enable-background="new 0 0 290.2 409.6" xml:space="preserve">
<sodipodi:namedview  inkscape:zoom="0.35" id="base" bordercolor="#666666" fit-margin-top="0" inkscape:cy="256" pagecolor="#ffffff" borderopacity="1.0" fit-margin-left="0" inkscape:cx="181.367" showgrid="false" inkscape:window-x="0" inkscape:window-y="27" inkscape:window-width="1366" inkscape:window-height="704" inkscape:current-layer="layer1" inkscape:pageshadow="2" inkscape:pageopacity="0.0" fit-margin-bottom="0" inkscape:window-maximized="1" inkscape:document-units="px" fit-margin-right="0">
	</sodipodi:namedview>
<path d="M30.1,3.3h18v18h16.6v-18h18v54.6h-18V39.7H48.3v18.2H30.1 M106.4,21.5H90.5V3.3h49.8v18.2h-15.9v36.4h-18 M148.2,3.3H167
	l11.6,19.2l11.6-19.2H209v54.6h-18V30.8l-12.6,19.6l-12.6-19.6v27.1h-17.7 M217.9,3.3h18v36.6h25.5v18h-43.4"/>
<path fill="#E44D26" d="M29.5,376.1L3.7,82.9h283.4L261.4,376l-116.2,32.6"/>
<path fill="#F16529" d="M145.5,383.7V107h115.9l-22.1,250.2"/>
<path fill="#EBEBEB" d="M56.4,142.8h89.1v35.9H95.3l3.3,36.8h46.9v35.9H66.1 M67.7,269.5h35.6l2.5,28.7l39.7,10.8v37.5L72.7,326"/>
<path fill="#FFFFFF" d="M234.2,142.8h-88.9v35.9h85.6 M227.7,215.6h-82.4v35.9h43.8l-4.1,46.7L145.3,309v37.4L218,326"/>
</svg>
