<svg version="1.1" xmlns="http://www.w3.org/2000/svg" xmlns:xlink="http://www.w3.org/1999/xlink" width="363" height="412" viewBox="0, 0, 363, 412">
  <g id="html5">
    <path d="M33.144,370.567 L0.133,0.31 L362.867,0.31 L329.821,370.509 L181.278,411.69 z" fill="#1572B6"/>
    <path d="M181.5,380.213 L301.53,346.936 L329.77,30.584 L181.5,30.584 z" fill="#33A9DC"/>
    <path d="M181.5,167.907 L121.41,167.907 L117.26,121.406 L181.5,121.406 L181.5,75.995 L181.343,75.995 L67.632,75.995 L68.719,88.178 L79.88,213.317 L181.5,213.317 z" fill="#EBEBEB"/>
    <path d="M181.5,285.843 L181.301,285.896 L130.727,272.24 L127.494,236.023 L102.919,236.023 L81.909,236.023 L88.271,307.324 L181.291,333.147 L181.5,333.089 z" fill="#EBEBEB"/>
    <path d="M181.343,167.907 L181.343,213.317 L237.261,213.317 L231.99,272.211 L181.343,285.881 L181.343,333.125 L274.437,307.324 L275.12,299.652 L285.791,180.101 L286.899,167.907 L274.662,167.907 z" fill="#FFFFFF"/>
    <path d="M181.343,75.995 L181.343,104.199 L181.343,121.295 L181.343,121.406 L290.885,121.406 L290.885,121.406 L291.031,121.406 L291.942,111.199 L294.011,88.178 L295.097,75.995 z" fill="#FFFFFF"/>
  </g>
</svg>
